<mxfile host="app.diagrams.net" modified="2024-03-09T22:00:28.402Z" agent="Mozilla/5.0 (Windows NT 10.0; Win64; x64) AppleWebKit/537.36 (KHTML, like Gecko) Chrome/121.0.0.0 Safari/537.36" etag="YS-uY2SZbUwZ45J0073t" version="24.0.4" type="github">
  <diagram id="C5RBs43oDa-KdzZeNtuy" name="Page-1">
    <mxGraphModel dx="2261" dy="1907" grid="1" gridSize="10" guides="1" tooltips="1" connect="1" arrows="1" fold="1" page="1" pageScale="1" pageWidth="827" pageHeight="1169" math="0" shadow="0">
      <root>
        <mxCell id="WIyWlLk6GJQsqaUBKTNV-0" />
        <mxCell id="WIyWlLk6GJQsqaUBKTNV-1" parent="WIyWlLk6GJQsqaUBKTNV-0" />
        <mxCell id="WIyWlLk6GJQsqaUBKTNV-3" value="login&lt;div&gt;create user&lt;/div&gt;" style="rounded=1;whiteSpace=wrap;html=1;fontSize=12;glass=0;strokeWidth=1;shadow=0;" parent="WIyWlLk6GJQsqaUBKTNV-1" vertex="1">
          <mxGeometry x="-530" y="-40" width="120" height="40" as="geometry" />
        </mxCell>
        <mxCell id="5PD0dnW08N7NBjfCld5Z-15" style="edgeStyle=orthogonalEdgeStyle;rounded=0;orthogonalLoop=1;jettySize=auto;html=1;exitX=1;exitY=0.5;exitDx=0;exitDy=0;entryX=0;entryY=0.5;entryDx=0;entryDy=0;" parent="WIyWlLk6GJQsqaUBKTNV-1" source="5PD0dnW08N7NBjfCld5Z-0" target="5PD0dnW08N7NBjfCld5Z-12" edge="1">
          <mxGeometry relative="1" as="geometry" />
        </mxCell>
        <mxCell id="5PD0dnW08N7NBjfCld5Z-0" value="username&lt;div&gt;pasword&lt;/div&gt;" style="rounded=1;whiteSpace=wrap;html=1;fontSize=12;glass=0;strokeWidth=1;shadow=0;" parent="WIyWlLk6GJQsqaUBKTNV-1" vertex="1">
          <mxGeometry x="-276" y="-40" width="120" height="40" as="geometry" />
        </mxCell>
        <mxCell id="5PD0dnW08N7NBjfCld5Z-1" value="Existing&lt;div&gt;user&amp;nbsp;&lt;span style=&quot;background-color: initial;&quot;&gt;&amp;amp; p&lt;/span&gt;&lt;span style=&quot;background-color: initial;&quot;&gt;assing&amp;nbsp;&lt;/span&gt;&lt;div&gt;&lt;span style=&quot;background-color: initial;&quot;&gt;sanitize&amp;nbsp;&lt;/span&gt;&lt;span style=&quot;background-color: initial;&quot;&gt;check&lt;/span&gt;&lt;/div&gt;&lt;/div&gt;" style="rhombus;whiteSpace=wrap;html=1;shadow=0;fontFamily=Helvetica;fontSize=12;align=center;strokeWidth=1;spacing=6;spacingTop=-4;" parent="WIyWlLk6GJQsqaUBKTNV-1" vertex="1">
          <mxGeometry x="-525" y="54" width="110" height="100" as="geometry" />
        </mxCell>
        <mxCell id="5PD0dnW08N7NBjfCld5Z-38" style="edgeStyle=orthogonalEdgeStyle;rounded=0;orthogonalLoop=1;jettySize=auto;html=1;exitX=0.5;exitY=0;exitDx=0;exitDy=0;entryX=0.5;entryY=0;entryDx=0;entryDy=0;" parent="WIyWlLk6GJQsqaUBKTNV-1" source="5PD0dnW08N7NBjfCld5Z-12" target="WIyWlLk6GJQsqaUBKTNV-3" edge="1">
          <mxGeometry relative="1" as="geometry">
            <mxPoint x="-10" y="-90" as="targetPoint" />
            <Array as="points">
              <mxPoint x="-10" y="-110" />
              <mxPoint x="-470" y="-110" />
            </Array>
          </mxGeometry>
        </mxCell>
        <mxCell id="5PD0dnW08N7NBjfCld5Z-12" value="valid i&lt;span style=&quot;background-color: initial;&quot;&gt;nputs&amp;nbsp;&lt;/span&gt;&lt;span style=&quot;background-color: initial;&quot;&gt;&amp;amp; passing sanitize check&lt;/span&gt;" style="rhombus;whiteSpace=wrap;html=1;shadow=0;fontFamily=Helvetica;fontSize=12;align=center;strokeWidth=1;spacing=6;spacingTop=-4;" parent="WIyWlLk6GJQsqaUBKTNV-1" vertex="1">
          <mxGeometry x="-70" y="-75" width="120" height="110" as="geometry" />
        </mxCell>
        <mxCell id="5PD0dnW08N7NBjfCld5Z-27" style="edgeStyle=orthogonalEdgeStyle;rounded=0;orthogonalLoop=1;jettySize=auto;html=1;exitX=0.5;exitY=1;exitDx=0;exitDy=0;entryX=0.5;entryY=0;entryDx=0;entryDy=0;" parent="WIyWlLk6GJQsqaUBKTNV-1" source="5PD0dnW08N7NBjfCld5Z-12" target="5PD0dnW08N7NBjfCld5Z-25" edge="1">
          <mxGeometry relative="1" as="geometry" />
        </mxCell>
        <mxCell id="5PD0dnW08N7NBjfCld5Z-25" value="create user&lt;div&gt;store hashed username and password,&amp;nbsp;&lt;/div&gt;&lt;div&gt;generate and store vault key&lt;/div&gt;" style="rounded=1;whiteSpace=wrap;html=1;fontSize=12;glass=0;strokeWidth=1;shadow=0;" parent="WIyWlLk6GJQsqaUBKTNV-1" vertex="1">
          <mxGeometry x="-70" y="70" width="120" height="100" as="geometry" />
        </mxCell>
        <mxCell id="5PD0dnW08N7NBjfCld5Z-33" value="&lt;font style=&quot;font-size: 12px;&quot;&gt;login&lt;/font&gt;" style="edgeLabel;html=1;align=center;verticalAlign=middle;resizable=0;points=[];" parent="WIyWlLk6GJQsqaUBKTNV-1" vertex="1" connectable="0">
          <mxGeometry x="-430" y="30" as="geometry">
            <mxPoint x="-25" y="-2" as="offset" />
          </mxGeometry>
        </mxCell>
        <mxCell id="5PD0dnW08N7NBjfCld5Z-35" value="" style="endArrow=classic;html=1;rounded=0;exitX=1;exitY=0.5;exitDx=0;exitDy=0;entryX=0;entryY=0.5;entryDx=0;entryDy=0;" parent="WIyWlLk6GJQsqaUBKTNV-1" source="WIyWlLk6GJQsqaUBKTNV-3" target="5PD0dnW08N7NBjfCld5Z-0" edge="1">
          <mxGeometry width="50" height="50" relative="1" as="geometry">
            <mxPoint x="-180" y="150" as="sourcePoint" />
            <mxPoint x="-130" y="100" as="targetPoint" />
          </mxGeometry>
        </mxCell>
        <mxCell id="5PD0dnW08N7NBjfCld5Z-36" value="&lt;font style=&quot;font-size: 12px;&quot;&gt;create user&lt;/font&gt;" style="text;html=1;align=center;verticalAlign=middle;resizable=0;points=[];autosize=1;strokeColor=none;fillColor=none;" parent="WIyWlLk6GJQsqaUBKTNV-1" vertex="1">
          <mxGeometry x="-400" y="-44" width="80" height="30" as="geometry" />
        </mxCell>
        <mxCell id="5PD0dnW08N7NBjfCld5Z-39" value="no" style="text;html=1;align=center;verticalAlign=middle;resizable=0;points=[];autosize=1;strokeColor=none;fillColor=none;" parent="WIyWlLk6GJQsqaUBKTNV-1" vertex="1">
          <mxGeometry x="-20" y="-105" width="40" height="30" as="geometry" />
        </mxCell>
        <mxCell id="5PD0dnW08N7NBjfCld5Z-40" value="" style="endArrow=classic;html=1;rounded=0;exitX=1;exitY=0.5;exitDx=0;exitDy=0;entryX=0.308;entryY=0.05;entryDx=0;entryDy=0;entryPerimeter=0;" parent="WIyWlLk6GJQsqaUBKTNV-1" source="5PD0dnW08N7NBjfCld5Z-25" target="WIyWlLk6GJQsqaUBKTNV-3" edge="1">
          <mxGeometry width="50" height="50" relative="1" as="geometry">
            <mxPoint x="-180" y="150" as="sourcePoint" />
            <mxPoint x="-130" y="100" as="targetPoint" />
            <Array as="points">
              <mxPoint x="70" y="120" />
              <mxPoint x="70" y="-130" />
              <mxPoint x="-493" y="-130" />
            </Array>
          </mxGeometry>
        </mxCell>
        <mxCell id="5PD0dnW08N7NBjfCld5Z-41" value="yes" style="text;html=1;align=center;verticalAlign=middle;resizable=0;points=[];autosize=1;strokeColor=none;fillColor=none;" parent="WIyWlLk6GJQsqaUBKTNV-1" vertex="1">
          <mxGeometry x="-17" y="33" width="40" height="30" as="geometry" />
        </mxCell>
        <mxCell id="5PD0dnW08N7NBjfCld5Z-44" value="" style="endArrow=classic;html=1;rounded=0;exitX=0.5;exitY=1;exitDx=0;exitDy=0;entryX=0.5;entryY=0;entryDx=0;entryDy=0;" parent="WIyWlLk6GJQsqaUBKTNV-1" source="WIyWlLk6GJQsqaUBKTNV-3" target="5PD0dnW08N7NBjfCld5Z-1" edge="1">
          <mxGeometry width="50" height="50" relative="1" as="geometry">
            <mxPoint x="-180" y="90" as="sourcePoint" />
            <mxPoint x="-130" y="40" as="targetPoint" />
          </mxGeometry>
        </mxCell>
        <mxCell id="5PD0dnW08N7NBjfCld5Z-45" value="" style="edgeStyle=none;orthogonalLoop=1;jettySize=auto;html=1;rounded=0;entryX=0;entryY=0.75;entryDx=0;entryDy=0;exitX=0;exitY=0.5;exitDx=0;exitDy=0;" parent="WIyWlLk6GJQsqaUBKTNV-1" source="5PD0dnW08N7NBjfCld5Z-1" target="WIyWlLk6GJQsqaUBKTNV-3" edge="1">
          <mxGeometry width="100" relative="1" as="geometry">
            <mxPoint x="-530" y="100" as="sourcePoint" />
            <mxPoint x="-470" y="100" as="targetPoint" />
            <Array as="points">
              <mxPoint x="-560" y="104" />
              <mxPoint x="-560" y="40" />
              <mxPoint x="-560" y="-10" />
            </Array>
          </mxGeometry>
        </mxCell>
        <mxCell id="5PD0dnW08N7NBjfCld5Z-46" value="&lt;font style=&quot;font-size: 12px;&quot;&gt;no&lt;/font&gt;" style="text;html=1;align=center;verticalAlign=middle;resizable=0;points=[];autosize=1;strokeColor=none;fillColor=none;" parent="WIyWlLk6GJQsqaUBKTNV-1" vertex="1">
          <mxGeometry x="-565" y="15" width="40" height="30" as="geometry" />
        </mxCell>
        <mxCell id="5PD0dnW08N7NBjfCld5Z-49" value="" style="edgeStyle=none;orthogonalLoop=1;jettySize=auto;html=1;rounded=0;exitX=0.5;exitY=1;exitDx=0;exitDy=0;" parent="WIyWlLk6GJQsqaUBKTNV-1" source="5PD0dnW08N7NBjfCld5Z-1" edge="1">
          <mxGeometry width="100" relative="1" as="geometry">
            <mxPoint x="-520" y="170" as="sourcePoint" />
            <mxPoint x="-470" y="210" as="targetPoint" />
            <Array as="points" />
          </mxGeometry>
        </mxCell>
        <mxCell id="5PD0dnW08N7NBjfCld5Z-50" value="add password to list&lt;div&gt;view list&lt;/div&gt;" style="rounded=1;whiteSpace=wrap;html=1;fontSize=12;glass=0;strokeWidth=1;shadow=0;" parent="WIyWlLk6GJQsqaUBKTNV-1" vertex="1">
          <mxGeometry x="-530" y="200" width="120" height="60" as="geometry" />
        </mxCell>
        <mxCell id="5PD0dnW08N7NBjfCld5Z-51" value="&lt;font style=&quot;font-size: 12px;&quot;&gt;yes&lt;/font&gt;" style="text;html=1;align=center;verticalAlign=middle;resizable=0;points=[];autosize=1;strokeColor=none;fillColor=none;" parent="WIyWlLk6GJQsqaUBKTNV-1" vertex="1">
          <mxGeometry x="-475" y="159" width="40" height="30" as="geometry" />
        </mxCell>
        <mxCell id="5PD0dnW08N7NBjfCld5Z-54" value="" style="edgeStyle=none;orthogonalLoop=1;jettySize=auto;html=1;rounded=0;exitX=1;exitY=0.5;exitDx=0;exitDy=0;" parent="WIyWlLk6GJQsqaUBKTNV-1" source="5PD0dnW08N7NBjfCld5Z-50" edge="1">
          <mxGeometry width="100" relative="1" as="geometry">
            <mxPoint x="-390" y="250" as="sourcePoint" />
            <mxPoint x="-250" y="230" as="targetPoint" />
            <Array as="points" />
          </mxGeometry>
        </mxCell>
        <mxCell id="5PD0dnW08N7NBjfCld5Z-55" value="add password to list" style="text;html=1;align=center;verticalAlign=middle;resizable=0;points=[];autosize=1;strokeColor=none;fillColor=none;" parent="WIyWlLk6GJQsqaUBKTNV-1" vertex="1">
          <mxGeometry x="-401" y="206" width="130" height="30" as="geometry" />
        </mxCell>
        <mxCell id="5PD0dnW08N7NBjfCld5Z-56" value="username/&lt;span style=&quot;background-color: initial;&quot;&gt;password generator&lt;/span&gt;" style="rounded=1;whiteSpace=wrap;html=1;fontSize=12;glass=0;strokeWidth=1;shadow=0;" parent="WIyWlLk6GJQsqaUBKTNV-1" vertex="1">
          <mxGeometry x="-276" y="54" width="120" height="56" as="geometry" />
        </mxCell>
        <mxCell id="5PD0dnW08N7NBjfCld5Z-57" value="" style="edgeStyle=none;orthogonalLoop=1;jettySize=auto;html=1;rounded=0;exitX=0.5;exitY=0;exitDx=0;exitDy=0;entryX=0.5;entryY=1;entryDx=0;entryDy=0;" parent="WIyWlLk6GJQsqaUBKTNV-1" source="5PD0dnW08N7NBjfCld5Z-56" target="5PD0dnW08N7NBjfCld5Z-0" edge="1">
          <mxGeometry width="100" relative="1" as="geometry">
            <mxPoint x="-210" y="60" as="sourcePoint" />
            <mxPoint x="-210" as="targetPoint" />
            <Array as="points" />
          </mxGeometry>
        </mxCell>
        <mxCell id="5PD0dnW08N7NBjfCld5Z-58" value="password manger inputs" style="rounded=1;whiteSpace=wrap;html=1;fontSize=12;glass=0;strokeWidth=1;shadow=0;" parent="WIyWlLk6GJQsqaUBKTNV-1" vertex="1">
          <mxGeometry x="-250" y="202" width="120" height="56" as="geometry" />
        </mxCell>
        <mxCell id="5PD0dnW08N7NBjfCld5Z-59" value="" style="edgeStyle=none;orthogonalLoop=1;jettySize=auto;html=1;rounded=0;exitX=0.5;exitY=1;exitDx=0;exitDy=0;entryX=0.5;entryY=0;entryDx=0;entryDy=0;" parent="WIyWlLk6GJQsqaUBKTNV-1" source="5PD0dnW08N7NBjfCld5Z-56" target="5PD0dnW08N7NBjfCld5Z-58" edge="1">
          <mxGeometry width="100" relative="1" as="geometry">
            <mxPoint x="-270" y="150" as="sourcePoint" />
            <mxPoint x="-170" y="150" as="targetPoint" />
            <Array as="points">
              <mxPoint x="-216" y="160" />
              <mxPoint x="-190" y="160" />
            </Array>
          </mxGeometry>
        </mxCell>
        <mxCell id="5PD0dnW08N7NBjfCld5Z-60" value="valid i&lt;span style=&quot;background-color: initial;&quot;&gt;nputs&amp;nbsp;&lt;/span&gt;&lt;span style=&quot;background-color: initial;&quot;&gt;&amp;amp; passing sanitize check&lt;/span&gt;" style="rhombus;whiteSpace=wrap;html=1;shadow=0;fontFamily=Helvetica;fontSize=12;align=center;strokeWidth=1;spacing=6;spacingTop=-4;" parent="WIyWlLk6GJQsqaUBKTNV-1" vertex="1">
          <mxGeometry x="-250" y="290" width="120" height="110" as="geometry" />
        </mxCell>
        <mxCell id="5PD0dnW08N7NBjfCld5Z-61" value="" style="edgeStyle=none;orthogonalLoop=1;jettySize=auto;html=1;rounded=0;exitX=0.5;exitY=1;exitDx=0;exitDy=0;entryX=0.5;entryY=0;entryDx=0;entryDy=0;" parent="WIyWlLk6GJQsqaUBKTNV-1" source="5PD0dnW08N7NBjfCld5Z-58" target="5PD0dnW08N7NBjfCld5Z-60" edge="1">
          <mxGeometry width="100" relative="1" as="geometry">
            <mxPoint x="-120" y="250" as="sourcePoint" />
            <mxPoint x="-20" y="250" as="targetPoint" />
            <Array as="points" />
          </mxGeometry>
        </mxCell>
        <mxCell id="5PD0dnW08N7NBjfCld5Z-62" value="yes" style="text;html=1;align=center;verticalAlign=middle;resizable=0;points=[];autosize=1;strokeColor=none;fillColor=none;" parent="WIyWlLk6GJQsqaUBKTNV-1" vertex="1">
          <mxGeometry x="-196" y="403" width="40" height="30" as="geometry" />
        </mxCell>
        <mxCell id="5PD0dnW08N7NBjfCld5Z-63" value="encrypt and store inputs" style="rounded=1;whiteSpace=wrap;html=1;fontSize=12;glass=0;strokeWidth=1;shadow=0;" parent="WIyWlLk6GJQsqaUBKTNV-1" vertex="1">
          <mxGeometry x="-250" y="450" width="120" height="56" as="geometry" />
        </mxCell>
        <mxCell id="5PD0dnW08N7NBjfCld5Z-64" value="" style="edgeStyle=none;orthogonalLoop=1;jettySize=auto;html=1;rounded=0;exitX=0.5;exitY=1;exitDx=0;exitDy=0;entryX=0.5;entryY=0;entryDx=0;entryDy=0;" parent="WIyWlLk6GJQsqaUBKTNV-1" source="5PD0dnW08N7NBjfCld5Z-60" target="5PD0dnW08N7NBjfCld5Z-63" edge="1">
          <mxGeometry width="100" relative="1" as="geometry">
            <mxPoint x="-130" y="370" as="sourcePoint" />
            <mxPoint x="-30" y="370" as="targetPoint" />
            <Array as="points" />
          </mxGeometry>
        </mxCell>
        <mxCell id="5PD0dnW08N7NBjfCld5Z-65" value="&lt;font style=&quot;font-size: 12px;&quot;&gt;no&lt;/font&gt;" style="text;html=1;align=center;verticalAlign=middle;resizable=0;points=[];autosize=1;strokeColor=none;fillColor=none;" parent="WIyWlLk6GJQsqaUBKTNV-1" vertex="1">
          <mxGeometry x="-350" y="320" width="40" height="30" as="geometry" />
        </mxCell>
        <mxCell id="5PD0dnW08N7NBjfCld5Z-66" value="" style="edgeStyle=none;orthogonalLoop=1;jettySize=auto;html=1;rounded=0;exitX=0;exitY=0.5;exitDx=0;exitDy=0;entryX=0.75;entryY=1;entryDx=0;entryDy=0;" parent="WIyWlLk6GJQsqaUBKTNV-1" source="5PD0dnW08N7NBjfCld5Z-60" target="5PD0dnW08N7NBjfCld5Z-50" edge="1">
          <mxGeometry width="100" relative="1" as="geometry">
            <mxPoint x="-380" y="390" as="sourcePoint" />
            <mxPoint x="-280" y="390" as="targetPoint" />
            <Array as="points">
              <mxPoint x="-440" y="345" />
            </Array>
          </mxGeometry>
        </mxCell>
        <mxCell id="5PD0dnW08N7NBjfCld5Z-67" value="" style="edgeStyle=none;orthogonalLoop=1;jettySize=auto;html=1;rounded=0;exitX=0;exitY=0.5;exitDx=0;exitDy=0;" parent="WIyWlLk6GJQsqaUBKTNV-1" source="5PD0dnW08N7NBjfCld5Z-63" edge="1">
          <mxGeometry width="100" relative="1" as="geometry">
            <mxPoint x="-420" y="430" as="sourcePoint" />
            <mxPoint x="-490" y="250" as="targetPoint" />
            <Array as="points">
              <mxPoint x="-490" y="480" />
            </Array>
          </mxGeometry>
        </mxCell>
        <mxCell id="5PD0dnW08N7NBjfCld5Z-68" value="Decrypt password list and view" style="rounded=1;whiteSpace=wrap;html=1;fontSize=12;glass=0;strokeWidth=1;shadow=0;" parent="WIyWlLk6GJQsqaUBKTNV-1" vertex="1">
          <mxGeometry x="-750" y="202" width="120" height="56" as="geometry" />
        </mxCell>
        <mxCell id="5PD0dnW08N7NBjfCld5Z-69" value="" style="edgeStyle=none;orthogonalLoop=1;jettySize=auto;html=1;rounded=0;exitX=0;exitY=0.25;exitDx=0;exitDy=0;entryX=1;entryY=0.25;entryDx=0;entryDy=0;" parent="WIyWlLk6GJQsqaUBKTNV-1" source="5PD0dnW08N7NBjfCld5Z-50" target="5PD0dnW08N7NBjfCld5Z-68" edge="1">
          <mxGeometry width="100" relative="1" as="geometry">
            <mxPoint x="-640" y="300" as="sourcePoint" />
            <mxPoint x="-540" y="300" as="targetPoint" />
            <Array as="points" />
          </mxGeometry>
        </mxCell>
        <mxCell id="5PD0dnW08N7NBjfCld5Z-70" value="view list" style="text;html=1;align=center;verticalAlign=middle;resizable=0;points=[];autosize=1;strokeColor=none;fillColor=none;" parent="WIyWlLk6GJQsqaUBKTNV-1" vertex="1">
          <mxGeometry x="-611" y="193" width="70" height="30" as="geometry" />
        </mxCell>
        <mxCell id="5PD0dnW08N7NBjfCld5Z-71" value="" style="edgeStyle=none;orthogonalLoop=1;jettySize=auto;html=1;rounded=0;exitX=0.5;exitY=0;exitDx=0;exitDy=0;entryX=0;entryY=0.25;entryDx=0;entryDy=0;" parent="WIyWlLk6GJQsqaUBKTNV-1" source="5PD0dnW08N7NBjfCld5Z-68" target="WIyWlLk6GJQsqaUBKTNV-3" edge="1">
          <mxGeometry width="100" relative="1" as="geometry">
            <mxPoint x="-730" y="110" as="sourcePoint" />
            <mxPoint x="-630" y="110" as="targetPoint" />
            <Array as="points">
              <mxPoint x="-690" y="-30" />
              <mxPoint x="-610" y="-30" />
            </Array>
          </mxGeometry>
        </mxCell>
        <mxCell id="5PD0dnW08N7NBjfCld5Z-72" value="inactivity logout" style="text;html=1;align=center;verticalAlign=middle;resizable=0;points=[];autosize=1;strokeColor=none;fillColor=none;" parent="WIyWlLk6GJQsqaUBKTNV-1" vertex="1">
          <mxGeometry x="-701" y="71" width="110" height="30" as="geometry" />
        </mxCell>
        <mxCell id="5PD0dnW08N7NBjfCld5Z-74" value="go back" style="text;html=1;align=center;verticalAlign=middle;resizable=0;points=[];autosize=1;strokeColor=none;fillColor=none;" parent="WIyWlLk6GJQsqaUBKTNV-1" vertex="1">
          <mxGeometry x="-620" y="231" width="70" height="30" as="geometry" />
        </mxCell>
        <mxCell id="5PD0dnW08N7NBjfCld5Z-75" value="" style="edgeStyle=none;orthogonalLoop=1;jettySize=auto;html=1;rounded=0;entryX=0;entryY=0.667;entryDx=0;entryDy=0;entryPerimeter=0;" parent="WIyWlLk6GJQsqaUBKTNV-1" target="5PD0dnW08N7NBjfCld5Z-50" edge="1">
          <mxGeometry width="100" relative="1" as="geometry">
            <mxPoint x="-630" y="240" as="sourcePoint" />
            <mxPoint x="-530" y="245" as="targetPoint" />
            <Array as="points" />
          </mxGeometry>
        </mxCell>
        <mxCell id="5PD0dnW08N7NBjfCld5Z-76" value="redirect&amp;nbsp;" style="text;html=1;align=center;verticalAlign=middle;resizable=0;points=[];autosize=1;strokeColor=none;fillColor=none;" parent="WIyWlLk6GJQsqaUBKTNV-1" vertex="1">
          <mxGeometry x="-425" y="453" width="70" height="30" as="geometry" />
        </mxCell>
        <mxCell id="5PD0dnW08N7NBjfCld5Z-77" value="redirect" style="text;html=1;align=center;verticalAlign=middle;resizable=0;points=[];autosize=1;strokeColor=none;fillColor=none;" parent="WIyWlLk6GJQsqaUBKTNV-1" vertex="1">
          <mxGeometry x="63" y="18" width="60" height="30" as="geometry" />
        </mxCell>
      </root>
    </mxGraphModel>
  </diagram>
</mxfile>
